
<svg width="1440" height="600" viewBox="0 0 1440 600" fill="none" xmlns="http://www.w3.org/2000/svg">
  <g opacity="0.1">
    <path d="M1440 0H0V600H1440V0Z" fill="url(#paint0_linear_101_2)" />
    <path d="M626.283 125.029C628.137 125.029 629.642 123.516 629.642 121.653C629.642 119.79 628.137 118.276 626.283 118.276C624.429 118.276 622.924 119.79 622.924 121.653C622.924 123.516 624.429 125.029 626.283 125.029Z" fill="#0369A1" />
    <path d="M691.264 58.6187C693.118 58.6187 694.623 57.1051 694.623 55.242C694.623 53.3789 693.118 51.8652 691.264 51.8652C689.41 51.8652 687.905 53.3789 687.905 55.242C687.905 57.1051 689.41 58.6187 691.264 58.6187Z" fill="#0369A1" />
    <path d="M516.531 169.686C518.385 169.686 519.89 168.172 519.89 166.309C519.89 164.446 518.385 162.932 516.531 162.932C514.677 162.932 513.172 164.446 513.172 166.309C513.172 168.172 514.677 169.686 516.531 169.686Z" fill="#0369A1" />
    <path d="M733.936 127.644C735.79 127.644 737.295 126.131 737.295 124.268C737.295 122.405 735.79 120.891 733.936 120.891C732.082 120.891 730.577 122.405 730.577 124.268C730.577 126.131 732.082 127.644 733.936 127.644Z" fill="#0369A1" />
    <path d="M711.029 178.659C712.883 178.659 714.388 177.146 714.388 175.283C714.388 173.419 712.883 171.906 711.029 171.906C709.175 171.906 707.67 173.419 707.67 175.283C707.67 177.146 709.175 178.659 711.029 178.659Z" fill="#0369A1" />
    <path d="M651.622 132.874C655.362 132.874 658.391 129.825 658.391 126.06C658.391 122.295 655.362 119.246 651.622 119.246C647.883 119.246 644.854 122.295 644.854 126.06C644.854 129.825 647.883 132.874 651.622 132.874Z" fill="#0369A1" />
    <path d="M647.867 249.01C650.039 249.01 651.804 247.234 651.804 245.048C651.804 242.862 650.039 241.086 647.867 241.086C645.695 241.086 643.93 242.862 643.93 245.048C643.93 247.234 645.695 249.01 647.867 249.01Z" fill="#0369A1" />
    <path d="M737.642 265.829C739.814 265.829 741.578 264.053 741.578 261.867C741.578 259.681 739.814 257.905 737.642 257.905C735.469 257.905 733.705 259.681 733.705 261.867C733.705 264.053 735.469 265.829 737.642 265.829Z" fill="#0369A1" />
    <path d="M415.037 213.872C417.21 213.872 418.974 212.095 418.974 209.909C418.974 207.723 417.21 205.947 415.037 205.947C412.865 205.947 411.1 207.723 411.1 209.909C411.1 212.095 412.865 213.872 415.037 213.872Z" fill="#0369A1" />
    <path d="M419.879 341.333C422.051 341.333 423.816 339.557 423.816 337.371C423.816 335.185 422.051 333.408 419.879 333.408C417.707 333.408 415.942 335.185 415.942 337.371C415.942 339.557 417.707 341.333 419.879 341.333Z" fill="#0369A1" />
    <path d="M342.484 196.508C344.656 196.508 346.421 194.731 346.421 192.545C346.421 190.359 344.656 188.583 342.484 188.583C340.312 188.583 338.547 190.359 338.547 192.545C338.547 194.731 340.312 196.508 342.484 196.508Z" fill="#0369A1" />
    <path d="M365.392 252.926C367.564 252.926 369.329 251.15 369.329 248.964C369.329 246.778 367.564 245.001 365.392 245.001C363.219 245.001 361.455 246.778 361.455 248.964C361.455 251.15 363.219 252.926 365.392 252.926Z" fill="#0369A1" />
    <path d="M659.178 313.437C663.774 313.437 667.499 309.685 667.499 305.059C667.499 300.432 663.774 296.681 659.178 296.681C654.581 296.681 650.856 300.432 650.856 305.059C650.856 309.685 654.581 313.437 659.178 313.437Z" fill="#0369A1" />
    <path d="M645.121 408.439C646.975 408.439 648.48 406.926 648.48 405.062C648.48 403.199 646.975 401.686 645.121 401.686C643.267 401.686 641.762 403.199 641.762 405.062C641.762 406.926 643.267 408.439 645.121 408.439Z" fill="#0369A1" />
    <path d="M705.245 333.116C707.099 333.116 708.604 331.602 708.604 329.739C708.604 327.876 707.099 326.363 705.245 326.363C703.391 326.363 701.886 327.876 701.886 329.739C701.886 331.602 703.391 333.116 705.245 333.116Z" fill="#0369A1" />
    <path d="M978.949 235.11C980.803 235.11 982.309 233.597 982.309 231.733C982.309 229.87 980.803 228.357 978.949 228.357C977.095 228.357 975.59 229.87 975.59 231.733C975.59 233.597 977.095 235.11 978.949 235.11Z" fill="#0369A1" />
    <path d="M1002.8 333.116C1004.65 333.116 1006.16 331.602 1006.16 329.739C1006.16 327.876 1004.65 326.363 1002.8 326.363C1000.94 326.363 999.437 327.876 999.437 329.739C999.437 331.602 1000.94 333.116 1002.8 333.116Z" fill="#0369A1" />
    <path d="M645.121 512.132C646.975 512.132 648.48 510.618 648.48 508.755C648.48 506.892 646.975 505.378 645.121 505.378C643.267 505.378 641.762 506.892 641.762 508.755C641.762 510.618 643.267 512.132 645.121 512.132Z" fill="#0369A1" />
    <path d="M901.836 345.74C903.69 345.74 905.195 344.227 905.195 342.363C905.195 340.5 903.69 338.987 901.836 338.987C899.982 338.987 898.477 340.5 898.477 342.363C898.477 344.227 899.982 345.74 901.836 345.74Z" fill="#0369A1" />
    <path d="M832.623 364.969C834.477 364.969 835.982 363.456 835.982 361.593C835.982 359.729 834.477 358.216 832.623 358.216C830.769 358.216 829.264 359.729 829.264 361.593C829.264 363.456 830.769 364.969 832.623 364.969Z" fill="#0369A1" />
    <path d="M878.929 423.167C880.783 423.167 882.288 421.654 882.288 419.791C882.288 417.927 880.783 416.414 878.929 416.414C877.075 416.414 875.57 417.927 875.57 419.791C875.57 421.654 877.075 423.167 878.929 423.167Z" fill="#0369A1" />
    <path d="M978.949 373.701C982.689 373.701 985.718 370.652 985.718 366.887C985.718 363.122 982.689 360.073 978.949 360.073C975.21 360.073 972.181 363.122 972.181 366.887C972.181 370.652 975.21 373.701 978.949 373.701Z" fill="#0369A1" />
    <path d="M770.231 394.862C772.085 394.862 773.59 393.348 773.59 391.485C773.59 389.622 772.085 388.108 770.231 388.108C768.377 388.108 766.872 389.622 766.872 391.485C766.872 393.348 768.377 394.862 770.231 394.862Z" fill="#0369A1" />
    <path d="M760.706 458.028C762.56 458.028 764.065 456.514 764.065 454.651C764.065 452.788 762.56 451.275 760.706 451.275C758.852 451.275 757.347 452.788 757.347 454.651C757.347 456.514 758.852 458.028 760.706 458.028Z" fill="#0369A1" />
    <path d="M832.623 512.132C834.477 512.132 835.982 510.618 835.982 508.755C835.982 506.892 834.477 505.378 832.623 505.378C830.769 505.378 829.264 506.892 829.264 508.755C829.264 510.618 830.769 512.132 832.623 512.132Z" fill="#0369A1" />
    <path d="M908.405 512.132C911.122 512.132 913.326 509.913 913.326 507.177C913.326 504.441 911.122 502.221 908.405 502.221C905.689 502.221 903.484 504.441 903.484 507.177C903.484 509.913 905.689 512.132 908.405 512.132Z" fill="#0369A1" />
    <path d="M908.405 436.62C911.122 436.62 913.326 434.401 913.326 431.665C913.326 428.929 911.122 426.709 908.405 426.709C905.689 426.709 903.484 428.929 903.484 431.665C903.484 434.401 905.689 436.62 908.405 436.62Z" fill="#0369A1" />
    <path d="M1002.8 447.052C1005.51 447.052 1007.72 444.833 1007.72 442.097C1007.72 439.36 1005.51 437.141 1002.8 437.141C1000.08 437.141 997.875 439.36 997.875 442.097C997.875 444.833 1000.08 447.052 1002.8 447.052Z" fill="#0369A1" />
    <path d="M1089.04 377.745C1091.75 377.745 1093.96 375.526 1093.96 372.79C1093.96 370.053 1091.75 367.834 1089.04 367.834C1086.32 367.834 1084.11 370.053 1084.11 372.79C1084.11 375.526 1086.32 377.745 1089.04 377.745Z" fill="#0369A1" />
    <path d="M1060.5 426.191C1063.21 426.191 1065.42 423.972 1065.42 421.235C1065.42 418.499 1063.21 416.28 1060.5 416.28C1057.78 416.28 1055.57 418.499 1055.57 421.235C1055.57 423.972 1057.78 426.191 1060.5 426.191Z" fill="#0369A1" />
    <path d="M1002.8 494.998C1005.51 494.998 1007.72 492.778 1007.72 490.042C1007.72 487.306 1005.51 485.086 1002.8 485.086C1000.08 485.086 997.875 487.306 997.875 490.042C997.875 492.778 1000.08 494.998 1002.8 494.998Z" fill="#0369A1" />
    <path d="M704.779 223.504C708.138 223.504 710.862 220.761 710.862 217.378C710.862 213.995 708.138 211.252 704.779 211.252C701.421 211.252 698.696 213.995 698.696 217.378C698.696 220.761 701.421 223.504 704.779 223.504Z" fill="#0369A1" />
    <path d="M560.4 213.225C563.758 213.225 566.483 210.482 566.483 207.099C566.483 203.716 563.758 200.973 560.4 200.973C557.041 200.973 554.316 203.716 554.316 207.099C554.316 210.482 557.041 213.225 560.4 213.225Z" fill="#0369A1" />
    <path d="M553.641 268.389C558.238 268.389 561.962 264.638 561.962 260.011C561.962 255.385 558.238 251.633 553.641 251.633C549.045 251.633 545.32 255.385 545.32 260.011C545.32 264.638 549.045 268.389 553.641 268.389Z" fill="#0369A1" />
  </g>
  <defs>
    <linearGradient id="paint0_linear_101_2" x1="720" y1="0" x2="720" y2="600" gradientUnits="userSpaceOnUse">
      <stop stop-color="#0EA5E9" />
      <stop offset="1" stop-color="#0EA5E9" stop-opacity="0" />
    </linearGradient>
  </defs>
</svg>
